<?xml version="1.0" standalone="no"?><!DOCTYPE svg PUBLIC "-//W3C//DTD SVG 1.1//EN" "http://www.w3.org/Graphics/SVG/1.1/DTD/svg11.dtd"><svg class="icon" width="200px" height="200.00px" viewBox="0 0 1024 1024" version="1.1" xmlns="http://www.w3.org/2000/svg"><path fill="#333333" d="M665.6 97.28H358.4a30.72 30.72 0 0 0-30.72 30.72v153.6a30.72 30.72 0 0 0 30.72 30.72h307.2a30.72 30.72 0 0 0 30.72-30.72V128a30.72 30.72 0 0 0-30.72-30.72z m-30.72 61.44v92.16H389.12V158.72h245.76z"  /><path fill="#333333" d="M358.4 158.72a30.72 30.72 0 0 1 1.152 61.41952L358.4 220.16H245.76a10.24 10.24 0 0 0-10.2144 9.472L235.52 230.4v624.64a10.24 10.24 0 0 0 9.472 10.2144L245.76 865.28h532.48a10.24 10.24 0 0 0 10.2144-9.472L788.48 855.04V230.4a10.24 10.24 0 0 0-9.472-10.2144L778.24 220.16h-112.64a30.72 30.72 0 0 1-1.152-61.41952L665.6 158.72h112.64c39.05024 0 70.8096 31.232 71.66464 70.07744L849.92 230.4v624.64c0 39.05024-31.232 70.8096-70.07744 71.66464L778.24 926.72H245.76c-39.05536 0-70.8096-31.232-71.66464-70.07744L174.08 855.04V230.4c0-39.05536 31.232-70.8096 70.07744-71.66464L245.76 158.72h112.64z"  /><path fill="#333333" d="M650.24 632.32a30.72 30.72 0 0 1 1.152 61.41952l-1.152 0.02048H373.76a30.72 30.72 0 0 1-1.152-61.41952L373.76 632.32h276.48zM650.24 468.48a30.72 30.72 0 0 1 1.152 61.41952l-1.152 0.02048H373.76a30.72 30.72 0 0 1-1.152-61.41952L373.76 468.48h276.48z"  /></svg>