<?xml version="1.0" standalone="no"?><!DOCTYPE svg PUBLIC "-//W3C//DTD SVG 1.1//EN" "http://www.w3.org/Graphics/SVG/1.1/DTD/svg11.dtd"><svg class="icon" width="200px" height="200.00px" viewBox="0 0 1024 1024" version="1.1" xmlns="http://www.w3.org/2000/svg"><path fill="#333333" d="M696.32 358.4a30.72 30.72 0 0 1 1.152 61.41952L696.32 419.84H327.68a30.72 30.72 0 0 1-1.152-61.41952L327.68 358.4h368.64zM696.32 522.24a30.72 30.72 0 0 1 1.152 61.41952L696.32 583.68H327.68a30.72 30.72 0 0 1-1.152-61.41952L327.68 522.24h368.64z"  /><path fill="#333333" d="M808.96 153.6H215.04c-39.58784 0-71.68 32.09216-71.68 71.68v614.4l0.02048 1.14176c0.80896 23.01952 25.99936 37.13536 46.14656 25.41056L286.72 809.68704l97.19296 56.54528 1.2032 0.6656a30.72 30.72 0 0 0 29.696-0.6656L512 809.68704l97.19296 56.54528 1.2032 0.6656a30.72 30.72 0 0 0 29.696-0.6656L737.28 809.68704l97.19296 56.54528c20.48 11.91424 46.16704-2.85696 46.16704-26.55232V225.28c0-39.58784-32.09216-71.68-71.68-71.68z m0 61.44l0.768 0.0256A10.24 10.24 0 0 1 819.2 225.28v560.98304l-66.47296-38.67136-1.2032-0.6656a30.72 30.72 0 0 0-29.696 0.6656L624.64 804.13184l-97.19296-56.54016-1.2032-0.6656a30.72 30.72 0 0 0-29.696 0.6656L399.36 804.13184l-97.19296-56.54016-1.2032-0.6656a30.72 30.72 0 0 0-29.696 0.6656L204.8 786.25792V225.28a10.24 10.24 0 0 1 10.24-10.24h593.92z"  /></svg>