<?xml version="1.0" standalone="no"?><!DOCTYPE svg PUBLIC "-//W3C//DTD SVG 1.1//EN" "http://www.w3.org/Graphics/SVG/1.1/DTD/svg11.dtd"><svg class="icon" width="200px" height="200.00px" viewBox="0 0 1024 1024" version="1.1" xmlns="http://www.w3.org/2000/svg"><path fill="#333333" d="M372.864 189.44H184.32c-39.58784 0-71.68 32.09216-71.68 71.68v501.76c0 39.58784 32.09216 71.68 71.68 71.68h655.36c39.58784 0 71.68-32.09216 71.68-71.68V353.28l-0.01536-1.60256C910.4896 312.832 878.73024 281.6 839.68 281.6h-308.41344l-130.7136-84.02944A51.2 51.2 0 0 0 372.864 189.44zM184.32 250.88h185.53856l130.7136 84.02944A51.2 51.2 0 0 0 528.25088 343.04H839.68a10.24 10.24 0 0 1 10.24 10.24v409.6a10.24 10.24 0 0 1-10.24 10.24H184.32a10.24 10.24 0 0 1-10.24-10.24V261.12a10.24 10.24 0 0 1 10.24-10.24z"  /></svg>